<?xml version="1.0" encoding="utf-8"?>
<!-- Generator: Adobe Illustrator 24.1.3, SVG Export Plug-In . SVG Version: 6.00 Build 0)  -->
<svg version="1.1"
	 id="svg8" inkscape:version="1.0 (4035a4fb49, 2020-05-01)" sodipodi:docname="car.svg" xmlns:cc="http://creativecommons.org/ns#" xmlns:dc="http://purl.org/dc/elements/1.1/" xmlns:inkscape="http://www.inkscape.org/namespaces/inkscape" xmlns:rdf="http://www.w3.org/1999/02/22-rdf-syntax-ns#" xmlns:sodipodi="http://sodipodi.sourceforge.net/DTD/sodipodi-0.dtd" xmlns:svg="http://www.w3.org/2000/svg"
	 xmlns="http://www.w3.org/2000/svg" xmlns:xlink="http://www.w3.org/1999/xlink" x="0px" y="0px" viewBox="0 0 595.3 841.9"
	 style="enable-background:new 0 0 595.3 841.9;" xml:space="preserve">
<sodipodi:namedview  bordercolor="#666666" borderopacity="1.0" id="base" inkscape:current-layer="layer1" inkscape:cx="400" inkscape:cy="560" inkscape:document-rotation="0" inkscape:document-units="mm" inkscape:pageopacity="0.0" inkscape:pageshadow="2" inkscape:window-height="1040" inkscape:window-maximized="0" inkscape:window-width="1513" inkscape:window-x="182" inkscape:window-y="0" inkscape:zoom="0.35" pagecolor="#ffffff" showgrid="false">
	</sodipodi:namedview>
<g id="layer1" inkscape:groupmode="layer" inkscape:label="РЎР»РѕР№ 1">
	<path id="path24" d="M35,374.3c-6.5-7.1-8.2-12.6-8.2-26.7c0-12.7-2.4-21.9-8.3-32.5c-7.9-14.1-8.3-17.3-8.3-70.6
		c0-52.2,0.5-57,8.2-73.7c4.5-9.8,16-26.2,25.5-36.4c9.5-10.2,16.7-19.1,16-19.6c-0.7-0.6-7-4.5-13.9-8.7
		c-20.7-12.6-21.2-30.8-1-39.4c22.5-9.5,43.6-4.2,49.3,12.4c1,3.1,11.8-5.3,31.3-24.3c22.8-22.1,33.3-29.9,44.7-33.2
		c11-3.1,43.6-4,121.8-3.2c123.2,1.2,112.4-1.5,153.6,37.9c14.7,14,27.7,25.6,28.8,25.6c1.2,0.1,3.1-3.6,4.2-8.3
		c2.5-10.1,13.4-13.6,32.9-10.4c27.6,4.5,35,25,14.6,40.7c-6.1,4.7-12.9,8.6-15,8.6c-7.1,0-4,5.2,14.3,23.5
		c28.3,28.3,33,42.4,34.6,104.3c1.3,50.6,1.2,52.1-7.6,70.3c-5.8,12.1-9.3,25.3-9.9,37.7c-0.7,16-2.4,20.4-9.9,27
		c-8,7-12.5,7.9-38.5,7.9c-33.9,0-42.6-4.4-46.5-23.8l-2.4-11.8l-160.5-0.9L124.3,346l-2.2,11.7c-3.7,19.9-14.6,25.6-49.3,25.6
		C45,383.3,42.6,382.7,35,374.3L35,374.3z M140.6,306.9c-3.7-4.8-12.1-14.7-18.6-22l-11.8-13.2H80.1c-28.2,0-30.3,0.5-33,7.6
		c-3.2,8.7-1.6,15.1,6,24.1c8.6,10.2,16.5,11.8,56.5,12.1l37.8,0.2L140.6,306.9L140.6,306.9z M390.9,305.7
		c20.6-20.9,22.1-20.6-107.1-20.6c-64.3,0-116.8,0.8-116.8,1.9c0,5.1,10.7,21.9,15.9,24.9c3.6,2.1,42.9,3.5,102.1,3.6l96.2,0.1
		L390.9,305.7L390.9,305.7z M509.9,308.9c11.4-7.1,16.3-18.7,12.7-30.3c-2-6.4-4.8-7-33.1-7h-30.9l-19.2,22l-19.2,22l39.4,0
		C493,315.6,500.8,314.6,509.9,308.9L509.9,308.9z M393.7,254.2c9.1-8.6,17-26.4,17-38.3v-8.6H283.4H156.2l2.3,12.6
		c3.1,16.6,10,29.8,19.2,36.3c6.3,4.5,22.3,5.3,107.9,5.3C383.6,261.5,386.2,261.3,393.7,254.2z M127.4,224.5l7.9-6.5l-6.9-9.6
		c-8.7-12.1-33.4-29.2-53-36.8c-12.8-5-16.6-5.2-25.4-1.5c-20.8,8.8-25,35.5-8.1,52.6c7.5,7.6,10.5,8.2,42.9,8.2
		C114,231,120.7,230,127.4,224.5L127.4,224.5z M527.8,221.1c17.5-17.8,9.7-47.5-13.9-52.8c-20.7-4.6-83.1,36.4-77.6,51
		c3.3,8.7,14,11.2,49,11.4C517.1,231,518.3,230.8,527.8,221.1L527.8,221.1z M440.6,90.4c-17.4-17.8-35.7-34.6-40.7-37.2
		c-7.3-3.9-29.5-4.8-114.1-4.8c-57.8,0-108.6,1.4-112.8,3.1c-4.3,1.7-23.5,18.4-42.8,37.1l-35.1,34l188.5,0.1l188.5,0.1L440.6,90.4
		L440.6,90.4z"/>
</g>
</svg>
