<?xml version="1.0" encoding="utf-8"?>
<!-- Generator: Adobe Illustrator 24.1.3, SVG Export Plug-In . SVG Version: 6.00 Build 0)  -->
<svg version="1.1" id="Слой_1" xmlns="http://www.w3.org/2000/svg" xmlns:xlink="http://www.w3.org/1999/xlink" x="0px" y="0px"
	 viewBox="0 0 640 641.7" style="enable-background:new 0 0 640 641.7;" xml:space="preserve">
<style type="text/css">
	.st0{fill:#FFFFFF;}
</style>
<path class="st0" d="M220,378.5c-14-19.2-49.1-31.4-74.5-3.9c-15.6,16.8-15.9,42.8-2.5,61.3l28.6,39.3c6.5,8.9-6.5,19.1-13.6,10.7
	l-62-73.3V275.5c0-26-21.2-49.3-47.2-49.7C21.9,225.3,0,246.9,0,273.7v170.4c0,10.9,3.7,21.5,10.5,30l107,133.7
	c5.4,6.8,8.9,17.5,10.1,27c0.5,4,4,6.9,8,6.9h16c4.8,0,8.5-3.9,8-8.7c-1.6-16-7.5-33.3-17.1-45.2l-107-133.7
	c-2.3-2.8-3.5-6.4-3.5-10V273.7c0-21,32-21.6,32,0.7v149.7l64.6,77.5c36.9,44.2,96.8-2.7,70.8-42.4c-0.2-0.3-0.4-0.5-0.5-0.8
	l-30.6-42.2c-4.7-6.5-4.2-16.7,3.5-22.3c7-5.1,17.1-3.8,22.4,3.5l42.4,58.4c12.7,16.9,19.5,37.4,19.5,58v120c0,4.4,3.6,8,8,8h16
	c4.4,0,8-3.6,8-8v-120c0-27.7-9-54.6-25.6-76.8L220,378.5z M640,273.7c0-26.8-21.9-48.4-48.8-48c-26,0.4-47.2,23.7-47.2,49.7v137.1
	l-62,73.3c-7.1,8.4-20.1-1.7-13.6-10.7l28.6-39.3c13.4-18.5,13.1-44.6-2.5-61.3c-25.5-27.4-60.6-15.3-74.5,3.9l-42.4,58.4
	C361,459,352,486,352,513.7v120c0,4.4,3.6,8,8,8h16c4.4,0,8-3.6,8-8v-120c0-20.6,6.8-41.1,19.5-58l42.4-58.4
	c5.3-7.3,15.3-8.7,22.4-3.5c7.8,5.6,8.3,15.8,3.5,22.3l-30.6,42.2c-0.2,0.3-0.4,0.5-0.5,0.8c-26.1,39.7,33.9,86.7,70.8,42.4
	l64.6-77.5V274.3c0-22.3,32-21.7,32-0.7V444c0,3.6-1.2,7.2-3.5,10l-107,133.7c-9.5,11.9-15.5,29.2-17.1,45.2c-0.5,4.8,3.2,8.7,8,8.7
	h16c4,0,7.5-2.9,8-6.9c1.2-9.6,4.6-20.2,10.1-27l107-133.7c6.8-8.5,10.5-19.1,10.5-30L640,273.7z"/>
<g id="layer1">
	<path id="path24" class="st0" d="M124.1,313.8c-5.1-5.6-6.4-9.9-6.4-20.9c0-9.9-1.9-17.1-6.5-25.4c-6.2-11-6.5-13.5-6.5-55.2
		c0-40.8,0.4-44.6,6.4-57.6c3.5-7.7,12.5-20.5,19.9-28.5c7.4-8,13.1-14.9,12.5-15.3c-0.5-0.5-5.5-3.5-10.9-6.8
		c-16.2-9.9-16.6-24.1-0.8-30.8c17.6-7.4,34.1-3.3,38.6,9.7c0.8,2.4,9.2-4.1,24.5-19c17.8-17.3,26-23.4,35-26
		c8.6-2.4,34.1-3.1,95.3-2.5c96.4,0.9,87.9-1.2,120.1,29.6c11.5,11,21.7,20,22.5,20c0.9,0.1,2.4-2.8,3.3-6.5
		c2-7.9,10.5-10.6,25.7-8.1c21.6,3.5,27.4,19.6,11.4,31.8c-4.8,3.7-10.1,6.7-11.7,6.7c-5.6,0-3.1,4.1,11.2,18.4
		c22.1,22.1,25.8,33.2,27.1,81.6c1,39.6,0.9,40.8-5.9,55c-4.5,9.5-7.3,19.8-7.7,29.5c-0.5,12.5-1.9,16-7.7,21.1
		c-6.3,5.5-9.8,6.2-30.1,6.2c-26.5,0-33.3-3.4-36.4-18.6l-1.9-9.2l-125.5-0.7l-125.5-0.5l-1.7,9.2c-2.9,15.6-11.4,20-38.6,20
		C131.9,320.8,130,320.4,124.1,313.8L124.1,313.8z M206.7,261.1c-2.9-3.8-9.5-11.5-14.5-17.2l-9.2-10.3h-23.5
		c-22.1,0-23.7,0.4-25.8,5.9c-2.5,6.8-1.3,11.8,4.7,18.9c6.7,8,12.9,9.2,44.2,9.5L212,268L206.7,261.1L206.7,261.1z M402.5,260.2
		c16.1-16.3,17.3-16.1-83.8-16.1c-50.3,0-91.4,0.6-91.4,1.5c0,4,8.4,17.1,12.4,19.5c2.8,1.6,33.6,2.7,79.9,2.8l75.2,0.1L402.5,260.2
		L402.5,260.2z M495.6,262.7c8.9-5.6,12.7-14.6,9.9-23.7c-1.6-5-3.8-5.5-25.9-5.5h-24.2l-15,17.2l-15,17.2h30.8
		C482.3,267.9,488.4,267.1,495.6,262.7L495.6,262.7z M404.7,219.9c7.1-6.7,13.3-20.6,13.3-30v-6.7h-99.6h-99.5l1.8,9.9
		c2.4,13,7.8,23.3,15,28.4c4.9,3.5,17.4,4.1,84.4,4.1C396.8,225.6,398.8,225.4,404.7,219.9z M196.4,196.6l6.2-5.1l-5.4-7.5
		c-6.8-9.5-26.1-22.8-41.5-28.8c-10-3.9-13-4.1-19.9-1.2c-16.3,6.9-19.6,27.8-6.3,41.1c5.9,5.9,8.2,6.4,33.6,6.4
		C185.9,201.7,191.1,200.9,196.4,196.6L196.4,196.6z M509.6,194c13.7-13.9,7.6-37.2-10.9-41.3c-16.2-3.6-65,28.5-60.7,39.9
		c2.6,6.8,11,8.8,38.3,8.9C501.2,201.7,502.1,201.6,509.6,194L509.6,194z M441.4,91.7c-13.6-13.9-27.9-27.1-31.8-29.1
		c-5.7-3.1-23.1-3.8-89.2-3.8c-45.2,0-84.9,1.1-88.2,2.4c-3.4,1.3-18.4,14.4-33.5,29l-27.5,26.6l147.4,0.1l147.4,0.1L441.4,91.7
		L441.4,91.7z"/>
</g>
</svg>
