<?xml version="1.0" encoding="utf-8"?>
<svg version="1.1" id="Слой_1" xmlns="http://www.w3.org/2000/svg" xmlns:xlink="http://www.w3.org/1999/xlink" x="0px" y="0px"
	 viewBox="0 0 640 641.7" style="enable-background:new 0 0 640 641.7;" xml:space="preserve" fill="#fff">
<path d="M220,378.5c-14-19.2-49.1-31.4-74.5-3.9c-15.6,16.8-15.9,42.8-2.5,61.3l28.6,39.3c6.5,8.9-6.5,19.1-13.6,10.7l-62-73.3
	V275.5c0-26-21.2-49.3-47.2-49.7C21.9,225.3,0,246.9,0,273.7v170.4c0,10.9,3.7,21.5,10.5,30l107,133.7c5.4,6.8,8.9,17.5,10.1,27
	c0.5,4,4,6.9,8,6.9h16c4.8,0,8.5-3.9,8-8.7c-1.6-16-7.5-33.3-17.1-45.2l-107-133.7c-2.3-2.8-3.5-6.4-3.5-10V273.7
	c0-21,32-21.6,32,0.7v149.7l64.6,77.5c36.9,44.2,96.8-2.7,70.8-42.4c-0.2-0.3-0.4-0.5-0.5-0.8l-30.6-42.2
	c-4.7-6.5-4.2-16.7,3.5-22.3c7-5.1,17.1-3.8,22.4,3.5l42.4,58.4c12.7,16.9,19.5,37.4,19.5,58v120c0,4.4,3.6,8,8,8h16
	c4.4,0,8-3.6,8-8v-120c0-27.7-9-54.6-25.6-76.8L220,378.5z M640,273.7c0-26.8-21.9-48.4-48.8-48c-26,0.4-47.2,23.7-47.2,49.7v137.1
	l-62,73.3c-7.1,8.4-20.1-1.7-13.6-10.7l28.6-39.3c13.4-18.5,13.1-44.6-2.5-61.3c-25.5-27.4-60.6-15.3-74.5,3.9l-42.4,58.4
	C361,459,352,486,352,513.7v120c0,4.4,3.6,8,8,8h16c4.4,0,8-3.6,8-8v-120c0-20.6,6.8-41.1,19.5-58l42.4-58.4
	c5.3-7.3,15.3-8.7,22.4-3.5c7.8,5.6,8.3,15.8,3.5,22.3l-30.6,42.2c-0.2,0.3-0.4,0.5-0.5,0.8c-26.1,39.7,33.9,86.7,70.8,42.4
	l64.6-77.5V274.3c0-22.3,32-21.7,32-0.7V444c0,3.6-1.2,7.2-3.5,10l-107,133.7c-9.5,11.9-15.5,29.2-17.1,45.2c-0.5,4.8,3.2,8.7,8,8.7
	h16c4,0,7.5-2.9,8-6.9c1.2-9.6,4.6-20.2,10.1-27l107-133.7c6.8-8.5,10.5-19.1,10.5-30L640,273.7z"/>
<path d="M492.9,129.6C469.4,70.5,453,0.5,375.3,0.5C230,3.5,200.6-26.1,147.1,129.6c-21,8-36,28.1-36,51.9c0.6,23-4.8,61,13.9,78.3
	c1.9,24.4-10.6,74.1,27.9,74.9c0,0,27.9,0,27.9,0c31.9-1.5,28.2-32.7,27.9-55.7h222.8c0,0,0,27.9,0,27.9c1.5,32,32.7,28.2,55.7,27.8
	c38.5-0.8,25.9-50.6,27.9-74.9c18.7-17.2,13.3-55.4,13.9-78.3C528.9,157.7,513.9,137.5,492.9,129.6z M225.9,82.4
	c6.3-15.9,21.7-26.3,38.8-26.3h110.5c36.5-1.8,44.9,44.3,56.1,69.6H208.6L225.9,82.4z M180.7,223.1c-36.9,1.4-36.9-56.9,0-55.5
	c16.7,0,41.8,25,41.8,41.6S197.5,223.1,180.7,223.1L180.7,223.1z M459.3,223.1c-16.7,0-41.8,2.8-41.8-13.9s25.1-41.6,41.8-41.6
	C496.1,166.2,496.1,224.5,459.3,223.1z"/>
</svg>
